HIERARCHY
ROOT joint_Root
{
	OFFSET 0.0 0.0 0.0
	CHANNELS 6 Xposition Yposition Zposition Zrotation Xrotation Yrotation 
	JOINT Hips
	{
		OFFSET 4.5925 91.4895 -427.239
		CHANNELS 6 Xposition Yposition Zposition Zrotation Xrotation Yrotation 
		JOINT Spine
		{
			OFFSET 15.7357 0.0 0.0
			CHANNELS 6 Xposition Yposition Zposition Zrotation Xrotation Yrotation 
			JOINT Chest
			{
				OFFSET 8.98455 -0.406207 0.0
				CHANNELS 6 Xposition Yposition Zposition Zrotation Xrotation Yrotation 
				JOINT Neck
				{
					OFFSET 16.3773 0.0 0.0
					CHANNELS 6 Xposition Yposition Zposition Zrotation Xrotation Yrotation 
					JOINT Head
					{
						OFFSET 6.45672 0.0 0.0
						CHANNELS 6 Xposition Yposition Zposition Zrotation Xrotation Yrotation 
						End Site
						{
							OFFSET 0.0 0.0 0.0
						}
					}
				}
				JOINT Shoulder_L
				{
					OFFSET 12.9942 -0.242716 4.98039
					CHANNELS 6 Xposition Yposition Zposition Zrotation Xrotation Yrotation 
					JOINT UpperArm_L
					{
						OFFSET 5.34809 0.0 0.0
						CHANNELS 6 Xposition Yposition Zposition Zrotation Xrotation Yrotation 
						JOINT LowerArm_L
						{
							OFFSET 24.3286 1.87007e-05 0.0
							CHANNELS 6 Xposition Yposition Zposition Zrotation Xrotation Yrotation 
							JOINT Hand_L
							{
								OFFSET 22.2916 0.0 0.0
								CHANNELS 6 Xposition Yposition Zposition Zrotation Xrotation Yrotation 
								End Site
								{
									OFFSET 0.0 0.0 0.0
								}
							}
						}
					}
				}
				JOINT Shoulder_R
				{
					OFFSET 12.9945 -0.242716 -4.98039
					CHANNELS 6 Xposition Yposition Zposition Zrotation Xrotation Yrotation 
					JOINT UpperArm_R
					{
						OFFSET -5.34813 0.0 0.0
						CHANNELS 6 Xposition Yposition Zposition Zrotation Xrotation Yrotation 
						JOINT LowerArm_R
						{
							OFFSET -24.3289 0.000322201 0.0
							CHANNELS 6 Xposition Yposition Zposition Zrotation Xrotation Yrotation 
							JOINT Hand_R
							{
								OFFSET -22.2915 -0.000108084 0.0
								CHANNELS 6 Xposition Yposition Zposition Zrotation Xrotation Yrotation 
								End Site
								{
									OFFSET 0.0 0.0 0.0
								}
							}
						}
					}
				}
			}
		}
		JOINT UpperLeg_L
		{
			OFFSET -2.19248 -6.46944 0.0
			CHANNELS 6 Xposition Yposition Zposition Zrotation Xrotation Yrotation 
			JOINT LowerLeg_L
			{
				OFFSET 39.0811 0.0 -1.23785e-05
				CHANNELS 6 Xposition Yposition Zposition Zrotation Xrotation Yrotation 
				JOINT Foot_L
				{
					OFFSET 40.9854 0.0 -1.26872e-05
					CHANNELS 6 Xposition Yposition Zposition Zrotation Xrotation Yrotation 
					JOINT Toes_L
					{
						OFFSET 11.7543 0.0 0.0
						CHANNELS 6 Xposition Yposition Zposition Zrotation Xrotation Yrotation 
						End Site
						{
							OFFSET 0.0 0.0 0.0
						}
					}
				}
			}
		}
		JOINT UpperLeg_R
		{
			OFFSET -2.19251 6.46944 0.0
			CHANNELS 6 Xposition Yposition Zposition Zrotation Xrotation Yrotation 
			JOINT LowerLeg_R
			{
				OFFSET -39.0811 -0.00228153 -0.0401928
				CHANNELS 6 Xposition Yposition Zposition Zrotation Xrotation Yrotation 
				JOINT Foot_R
				{
					OFFSET -40.9854 0.0 0.0
					CHANNELS 6 Xposition Yposition Zposition Zrotation Xrotation Yrotation 
					JOINT Toes_R
					{
						OFFSET -11.7543 0.0 0.0
						CHANNELS 6 Xposition Yposition Zposition Zrotation Xrotation Yrotation 
						End Site
						{
							OFFSET 0.0 0.0 0.0
						}
					}
				}
			}
		}
	}
}
MOTION
Frames:	6
Frame Time:	0.0333333
0.000000 0.000000 0.000000 0.000000 0.000000 -0.000000 115.112000 89.447200 151.551000 97.254200 -58.391300 6.891390 15.735700 0.000005 -0.000001 99.889800 85.881400 -99.928900 8.984550 -0.406207 -0.000000 0.349508 1.416870 -0.082450 16.377300 -0.000001 -0.000001 -2.764680 -7.859450 1.312200 6.456720 -0.000001 -0.000000 -10.962100 -11.506400 2.484300 12.994200 -0.242716 4.980390 -89.904800 -0.283149 -71.417000 5.348090 -0.000007 -0.000001 -88.062300 27.507800 13.187800 24.328600 0.000019 0.000005 0.000819 36.289700 -0.000004 22.291600 -0.000001 0.000005 -8.343230 5.177100 3.293490 12.994500 -0.242716 -4.980390 88.802600 7.304880 -80.664800 -5.348130 -0.000001 -0.000004 -61.322600 45.105100 -23.011400 -24.328900 0.000322 -0.000009 5.730900 3.825980 -56.394900 -22.291500 -0.000108 -0.000004 17.014900 5.430480 -3.954040 -2.192480 -6.469440 -0.000000 -173.411000 -0.606853 -21.706900 39.081100 -0.000007 -0.000012 -0.280207 0.562000 26.500900 40.985400 -0.000006 -0.000013 -8.970140 8.797600 -58.669800 11.754300 -0.000000 0.000003 -0.005635 -0.067492 -19.323400 -2.192510 6.469440 -0.000001 177.932000 -5.426540 -173.134000 -39.081100 -0.002282 -0.040193 0.061592 -0.099289 30.416700 -40.985400 0.000008 0.000006 23.495900 17.212400 -74.672200 -11.754300 -0.000006 -0.000006 -0.061891 -0.337873 -30.533300
0.000000 0.000000 0.000000 0.000000 0.000000 -0.000000 113.376000 88.477200 154.683000 98.516700 -58.975500 8.303620 15.735700 0.000005 -0.000001 96.959100 85.732700 -97.208300 8.984550 -0.406207 -0.000000 0.708135 1.049030 -0.504622 16.377300 -0.000001 -0.000001 -3.064390 -8.579810 1.092500 6.456720 -0.000001 -0.000000 -12.175500 -12.281700 1.955030 12.994200 -0.242716 4.980390 -90.063600 0.193195 -71.785200 5.348090 -0.000007 -0.000001 -86.192100 25.699700 13.137700 24.328600 0.000019 0.000005 -0.000005 32.219200 -0.000003 22.291600 -0.000001 0.000005 -8.577450 5.157350 3.767150 12.994500 -0.242716 -4.980390 88.757700 7.482690 -80.545600 -5.348130 -0.000001 -0.000004 -59.727600 45.199600 -22.709900 -24.328900 0.000322 -0.000009 5.142330 2.394410 -65.123300 -22.291500 -0.000108 -0.000004 18.032600 5.453120 -4.746120 -2.192480 -6.469440 -0.000000 -176.120000 -3.960730 -24.437100 39.081100 -0.000007 -0.000012 -0.142906 0.221121 32.874000 40.985400 -0.000006 -0.000013 -5.329960 16.154500 -57.766100 11.754300 -0.000000 0.000003 -0.000002 -0.000034 -16.578800 -2.192510 6.469440 -0.000001 176.412000 -5.947020 -171.757000 -39.081100 -0.002282 -0.040193 0.062280 -0.092115 32.632400 -40.985400 0.000008 0.000006 23.644400 16.433500 -75.491500 -11.754300 -0.000006 -0.000006 -0.083091 -0.400501 -33.214100
0.000000 0.000000 0.000000 0.000000 0.000000 -0.000000 111.005000 87.475400 158.061000 98.327300 -60.098600 9.165780 15.735700 0.000005 -0.000001 97.298100 85.532500 -97.431300 8.984550 -0.406207 -0.000000 1.098280 1.142300 -0.277072 16.377300 -0.000001 -0.000001 -2.945830 -9.051130 0.963501 6.456720 -0.000001 -0.000000 -12.532800 -12.586900 1.214150 12.994200 -0.242716 4.980390 -90.363000 1.114830 -71.966100 5.348090 -0.000007 -0.000001 -83.300700 24.811600 12.738900 24.328600 0.000019 0.000005 -0.000087 30.215800 -0.000003 22.291600 -0.000001 0.000005 -4.760270 5.166330 3.552940 12.994500 -0.242716 -4.980390 88.684400 7.783890 -80.376400 -5.348130 -0.000001 -0.000004 -57.972700 45.318800 -21.739600 -24.328900 0.000322 -0.000009 3.097860 1.072870 -70.944400 -22.291500 -0.000108 -0.000004 19.328300 5.488490 -6.070880 -2.192480 -6.469440 -0.000000 -176.492000 -2.797490 -24.541600 39.081100 -0.000007 -0.000012 -0.173020 0.201296 40.680500 40.985400 -0.000006 -0.000013 -3.399370 13.694500 -64.759600 11.754300 -0.000000 0.000003 -0.000065 -0.000706 -16.604900 -2.192510 6.469440 -0.000001 175.809000 -6.375120 -170.792000 -39.081100 -0.002282 -0.040193 0.067955 -0.086065 36.920800 -40.985400 0.000008 0.000006 23.952000 16.382900 -73.959300 -11.754300 -0.000006 -0.000006 -0.137795 -0.530048 -38.917600
0.000000 0.000000 0.000000 0.000000 0.000000 -0.000000 108.577000 87.051700 161.258000 98.984900 -61.807100 11.058500 15.735700 0.000005 -0.000001 98.642500 85.231600 -98.888100 8.984550 -0.406207 -0.000000 1.666150 1.445350 -0.511714 16.377300 -0.000001 -0.000001 -2.641600 -8.825160 0.958143 6.456720 -0.000001 -0.000000 -12.769600 -12.932100 1.104950 12.994200 -0.242716 4.980390 -90.695600 2.071810 -71.436600 5.348090 -0.000007 -0.000001 -79.383400 25.188800 10.677700 24.328600 0.000019 0.000005 0.620520 30.602900 -1.218120 22.291600 -0.000001 0.000005 1.267410 5.165700 3.555680 12.994500 -0.242716 -4.980390 88.601300 8.533850 -80.656400 -5.348130 -0.000001 -0.000004 -56.804700 45.229400 -20.413900 -24.328900 0.000322 -0.000009 1.263470 0.409035 -72.071200 -22.291500 -0.000108 -0.000004 20.201500 5.535080 -8.018960 -2.192480 -6.469440 -0.000000 -177.425000 -2.517450 -21.991600 39.081100 -0.000007 -0.000012 -0.200429 0.206288 44.175300 40.985400 -0.000006 -0.000013 -1.988990 11.788300 -69.660800 11.754300 -0.000000 0.000003 -0.000309 -0.002663 -16.676700 -2.192510 6.469440 -0.000001 174.303000 -5.882660 -172.762000 -39.081100 -0.002282 -0.040193 0.061332 -0.058517 44.778700 -40.985400 0.000008 0.000006 22.275700 18.751200 -67.412700 -11.754300 -0.000006 -0.000006 -0.218770 -0.675408 -45.667500
0.000000 0.000000 0.000000 0.000000 0.000000 -0.000000 106.163000 87.073200 164.124000 100.191000 -64.407000 13.730900 15.735700 0.000005 -0.000001 101.717000 84.778200 -102.212000 8.984550 -0.406207 -0.000000 2.470900 2.142010 -1.036370 16.377300 -0.000001 -0.000001 -2.296750 -8.351870 0.985877 6.456720 -0.000001 -0.000000 -12.263200 -12.845600 1.190230 12.994200 -0.242716 4.980390 -90.737900 2.157550 -71.114700 5.348090 -0.000007 -0.000001 -75.511100 25.440900 7.328400 24.328600 0.000019 0.000005 2.054600 31.408700 -3.938360 22.291600 -0.000001 0.000005 7.115250 5.128540 4.440940 12.994500 -0.242716 -4.980390 88.704700 8.383920 -81.185300 -5.348130 -0.000001 -0.000004 -57.791200 45.132100 -19.581000 -24.328900 0.000322 -0.000009 0.539504 0.227770 -67.199800 -22.291500 -0.000108 -0.000004 20.268000 5.554680 -8.928670 -2.192480 -6.469440 -0.000000 -178.315000 -3.815630 -17.702000 39.081100 -0.000007 -0.000012 -0.231269 0.232703 44.823500 40.985400 -0.000006 -0.000013 -0.939276 10.252900 -73.060600 11.754300 -0.000000 0.000003 -0.000403 -0.003325 -16.700100 -2.192510 6.469440 -0.000001 172.560000 -5.982370 -177.580000 -39.081100 -0.002282 -0.040193 0.059231 -0.039275 54.958400 -40.985400 0.000008 0.000006 13.288100 21.142200 -56.220700 -11.754300 -0.000006 -0.000006 -0.153371 -0.561352 -40.335200
0.000000 0.000000 0.000000 0.000000 0.000000 -0.000000 103.932000 87.263600 166.385000 100.824000 -66.945100 15.557400 15.735700 0.000005 -0.000001 101.199000 84.552300 -101.836000 8.984550 -0.406207 -0.000000 2.935950 2.140870 -1.326220 16.377300 -0.000001 -0.000001 -2.079480 -7.637530 0.801808 6.456720 -0.000001 -0.000000 -11.406800 -12.015100 0.773952 12.994200 -0.242716 4.980390 -90.875000 2.514280 -70.804500 5.348090 -0.000007 -0.000001 -70.868600 24.992600 3.974830 24.328600 0.000019 0.000005 3.747190 29.258700 -7.635040 22.291600 -0.000001 0.000005 10.411700 5.101790 5.071910 12.994500 -0.242716 -4.980390 88.836100 7.966010 -81.659500 -5.348130 -0.000001 -0.000004 -58.685400 46.138000 -20.813800 -24.328900 0.000322 -0.000009 0.721995 0.465916 -57.312900 -22.291500 -0.000108 -0.000004 19.879500 5.526180 -7.610990 -2.192480 -6.469440 -0.000000 -178.650000 -5.234360 -13.461700 39.081100 -0.000007 -0.000012 -0.242917 0.250727 44.094100 40.985400 -0.000006 -0.000013 -0.321924 8.952220 -75.365800 11.754300 -0.000000 0.000003 -0.000452 -0.003664 -16.712000 -2.192510 6.469440 -0.000001 171.617000 -6.202980 175.802000 -39.081100 -0.002282 -0.040193 0.137829 -0.064837 64.289600 -40.985400 0.000008 0.000006 -2.391710 16.716000 -40.771500 -11.754300 -0.000006 -0.000006 -0.044144 -0.276222 -27.932300
